<svg xmlns="http://www.w3.org/2000/svg" width="34" height="34" viewBox="0 0 24 24">
  <g opacity="0.55" filter="url(#filter0_f_309_104)">
    <circle cx="12" cy="12" r="5" fill="#363636"/>
  </g>
	<path fill="#363636" d="M14.79 10.62L3.5 21.9l-1.4-1.4L13.38 9.21zm4.48-2.89l.59-.59l-.79-.79l.64-.64l-1.42-1.42l-.64.64l-.79-.79l-.59.59c-1.74-1.42-3.7-2.56-5.8-3.36l-.83 1.79c1.75.92 3.36 2.03 4.86 3.34L14 7l3 3l.5-.5c1.31 1.5 2.42 3.11 3.34 4.86l1.79-.83c-.8-2.1-1.94-4.06-3.36-5.8" />
  <defs>
    <filter id="filter0_f_309_104" x="0" y="0" width="24" height="24" filterUnits="userSpaceOnUse" color-interpolation-filters="sRGB">
      <feFlood flood-opacity="0" result="BackgroundImageFix"/>
      <feBlend mode="normal" in="SourceGraphic" in2="BackgroundImageFix" result="shape"/>
      <feGaussianBlur stdDeviation="4" result="effect1_foregroundBlur_309_104"/>
    </filter>
  </defs>
</svg>
