<?xml version="1.0" encoding="UTF-8"?>
<svg xmlns="http://www.w3.org/2000/svg" viewBox="0 0 44 44" fill="none">
  <path d="M29.4528 16.6441C28.0448 16.1825 24.4 14.9881 24.4 15.0001C24.4 15.6366 24.1471 16.2471 23.6971 16.6971C23.247 17.1472 22.6365 17.4001 22 17.4001C21.3635 17.4001 20.753 17.1472 20.3029 16.6971C19.8529 16.2471 19.6 15.6366 19.6 15.0001C19.6 14.9881 15.9552 16.1825 14.5464 16.6441C14.3868 16.6964 14.2479 16.798 14.1497 16.9343C14.0515 17.0706 13.9991 17.2345 14 17.4025V20.3753C14 20.4968 14.0278 20.6167 14.0811 20.7259C14.1344 20.8351 14.2118 20.9308 14.3076 21.0056C14.4034 21.0804 14.5149 21.1324 14.6338 21.1576C14.7526 21.1829 14.8757 21.1807 14.9936 21.1513L17.2 20.6001V30.2001C17.2 30.4122 17.2843 30.6157 17.4343 30.7658C17.5844 30.9158 17.7878 31.0001 18 31.0001H26C26.2122 31.0001 26.4157 30.9158 26.5657 30.7658C26.7157 30.6157 26.8 30.4122 26.8 30.2001V20.6001L29.0064 21.1513C29.1243 21.1807 29.2474 21.1829 29.3662 21.1576C29.4851 21.1324 29.5966 21.0804 29.6924 21.0056C29.7882 20.9308 29.8657 20.8351 29.9189 20.7259C29.9722 20.6167 30 20.4968 30 20.3753V17.4025C30.0008 17.2344 29.9483 17.0704 29.85 16.9341C29.7516 16.7978 29.6126 16.6963 29.4528 16.6441Z" fill="currentColor"/>
</svg> 